<?xml version="1.0" encoding="utf-8"?>
<!-- Generator: Adobe Illustrator 24.1.0, SVG Export Plug-In . SVG Version: 6.00 Build 0)  -->
<svg version="1.1" id="Слой_1" xmlns="http://www.w3.org/2000/svg" xmlns:xlink="http://www.w3.org/1999/xlink" x="0px" y="0px"
	 viewBox="0 0 1920 283" style="enable-background:new 0 0 1920 283;" xml:space="preserve">
<style type="text/css">
	<!--.st0{fill: white}-->
</style>
<path id="SVGID_2_" class="st0" d="M119.3,244.5h18.8c2.6,0,4,3.2,2.1,5.1l-31.5,31.6c-1.9,1.9-5.1,0.5-5.1-2.1v-19
	c0-1,0.4-2,1.2-2.8l11.7-11.7C117.3,244.9,118.3,244.5,119.3,244.5z"/>
<path id="SVGID_4_" class="st0" d="M104.3,197.9l36,36c1.9,1.9,0.5,5.1-2.1,5.1l-18.8,0.1c-1,0-2-0.4-2.8-1.1l-14-14
	c-0.8-0.8-2.2-0.8-3.1,0l-16.2,16.2c-0.8,0.8-0.8,2.2,0,3.1l14,14c0.7,0.7,1.2,1.7,1.1,2.8l-0.1,19.1c0,2.6-3.2,4-5.1,2.1L57.1,245
	c-1.7-1.7-1.7-4.6,0-6.3L98,197.9C99.8,196.2,102.6,196.2,104.3,197.9z"/>
<path id="SVGID_3_" class="st0" d="M234.6,244.8h18.8c2.6,0,4,3.2,2.1,5.1l-31.5,31.6c-1.9,1.9-5.1,0.5-5.1-2.1v-19
	c0-1,0.4-2,1.2-2.8l11.7-11.7C232.6,245.2,233.6,244.8,234.6,244.8z"/>
<path id="SVGID_1_" class="st0" d="M219.7,198.3l36,36c1.9,1.9,0.5,5.1-2.1,5.1l-18.8,0.1c-1,0-2-0.4-2.8-1.1l-14-14
	c-0.8-0.8-2.2-0.8-3.1,0l-16.2,16.2c-0.8,0.8-0.8,2.2,0,3.1l14,14c0.7,0.7,1.2,1.7,1.1,2.8l-0.1,19.1c0,2.6-3.2,4-5.1,2.1
	l-36.2-36.3c-1.7-1.7-1.7-4.6,0-6.3l40.9-40.7C215.1,196.5,217.9,196.5,219.7,198.3z"/>
<path id="SVGID_8_" class="st0" d="M349.9,244.6h18.8c2.6,0,4,3.2,2.1,5.1l-31.5,31.6c-1.9,1.9-5.1,0.5-5.1-2.1v-19
	c0-1,0.4-2,1.2-2.8l11.7-11.7C347.9,245,348.9,244.6,349.9,244.6z"/>
<path id="SVGID_7_" class="st0" d="M334.9,198.1l36,36c1.9,1.9,0.5,5.1-2.1,5.1l-18.8,0.1c-1,0-2-0.4-2.8-1.1l-14-14
	c-0.8-0.8-2.2-0.8-3.1,0l-16.2,16.2c-0.8,0.8-0.8,2.2,0,3.1l14,14c0.7,0.7,1.2,1.7,1.1,2.8l-0.1,19.1c0,2.6-3.2,4-5.1,2.1
	l-36.2-36.3c-1.7-1.7-1.7-4.6,0-6.3l40.9-40.7C330.4,196.3,333.2,196.4,334.9,198.1z"/>
<path id="SVGID_6_" class="st0" d="M465.2,244.9H484c2.6,0,4,3.2,2.1,5.1l-31.5,31.6c-1.9,1.9-5.1,0.5-5.1-2.1v-19
	c0-1,0.4-2,1.2-2.8l11.7-11.7C463.2,245.3,464.2,244.9,465.2,244.9z"/>
<path id="SVGID_5_" class="st0" d="M450.3,198.4l36,36c1.9,1.9,0.5,5.1-2.1,5.1l-18.8,0.1c-1,0-2-0.4-2.8-1.1l-14-14
	c-0.8-0.8-2.2-0.8-3.1,0l-16.2,16.2c-0.8,0.8-0.8,2.2,0,3.1l14,14c0.7,0.7,1.2,1.7,1.1,2.8l-0.1,19.1c0,2.6-3.2,4-5.1,2.1
	l-36.2-36.3c-1.7-1.7-1.7-4.6,0-6.3l40.9-40.7C445.7,196.7,448.5,196.7,450.3,198.4z"/>
<path id="SVGID_16_" class="st0" d="M580.4,244.6h18.8c2.6,0,4,3.2,2.1,5.1l-31.5,31.6c-1.9,1.9-5.1,0.5-5.1-2.1v-19
	c0-1,0.4-2,1.2-2.8l11.7-11.7C578.4,245,579.4,244.6,580.4,244.6z"/>
<path id="SVGID_15_" class="st0" d="M565.5,198l36,36c1.9,1.9,0.5,5.1-2.1,5.1l-18.8,0.1c-1,0-2-0.4-2.8-1.1l-14-14
	c-0.8-0.8-2.2-0.8-3.1,0l-16.2,16.2c-0.8,0.8-0.8,2.2,0,3.1l14,14c0.7,0.7,1.2,1.7,1.1,2.8l-0.1,19.1c0,2.6-3.2,4-5.1,2.1L518.3,245
	c-1.7-1.7-1.7-4.6,0-6.3l40.9-40.7C560.9,196.3,563.7,196.3,565.5,198z"/>
<path id="SVGID_14_" class="st0" d="M695.8,244.9h18.8c2.6,0,4,3.2,2.1,5.1l-31.5,31.6c-1.9,1.9-5.1,0.5-5.1-2.1v-19
	c0-1,0.4-2,1.2-2.8l11.7-11.7C693.8,245.3,694.8,244.9,695.8,244.9z"/>
<path id="SVGID_13_" class="st0" d="M680.8,198.3l36,36c1.9,1.9,0.5,5.1-2.1,5.1l-18.8,0.1c-1,0-2-0.4-2.8-1.1l-14-14
	c-0.8-0.8-2.2-0.8-3.1,0l-16.2,16.2c-0.8,0.8-0.8,2.2,0,3.1l14,14c0.7,0.7,1.2,1.7,1.1,2.8l-0.1,19.1c0,2.6-3.2,4-5.1,2.1
	l-36.2-36.3c-1.7-1.7-1.7-4.6,0-6.3l40.9-40.7C676.3,196.6,679.1,196.6,680.8,198.3z"/>
<path id="SVGID_12_" class="st0" d="M811,244.7h18.8c2.6,0,4,3.2,2.1,5.1l-31.5,31.6c-1.9,1.9-5.1,0.5-5.1-2.1v-19
	c0-1,0.4-2,1.2-2.8l11.7-11.7C809,245.1,810,244.7,811,244.7z"/>
<path id="SVGID_11_" class="st0" d="M796.1,198.2l36,36c1.9,1.9,0.5,5.1-2.1,5.1l-18.8,0.1c-1,0-2-0.4-2.8-1.1l-14-14
	c-0.8-0.8-2.2-0.8-3.1,0l-16.2,16.2c-0.8,0.8-0.8,2.2,0,3.1l14,14c0.7,0.7,1.2,1.7,1.1,2.8l-0.1,19.1c0,2.6-3.2,4-5.1,2.1
	l-36.2-36.3c-1.7-1.7-1.7-4.6,0-6.3l40.9-40.7C791.5,196.4,794.4,196.4,796.1,198.2z"/>
<path id="SVGID_10_" class="st0" d="M926.4,245h18.8c2.6,0,4,3.2,2.1,5.1l-31.5,31.6c-1.9,1.9-5.1,0.5-5.1-2.1v-19
	c0-1,0.4-2,1.2-2.8l11.7-11.7C924.4,245.4,925.4,245,926.4,245z"/>
<path id="SVGID_9_" class="st0" d="M911.4,198.5l36,36c1.9,1.9,0.5,5.1-2.1,5.1l-18.8,0.1c-1,0-2-0.4-2.8-1.1l-14-14
	c-0.8-0.8-2.2-0.8-3.1,0l-16.2,16.2c-0.8,0.8-0.8,2.2,0,3.1l14,14c0.7,0.7,1.2,1.7,1.1,2.8l-0.1,19.1c0,2.6-3.2,4-5.1,2.1
	l-36.2-36.3c-1.7-1.7-1.7-4.6,0-6.3l40.9-40.7C906.9,196.7,909.7,196.8,911.4,198.5z"/>
<path id="SVGID_32_" class="st0" d="M1041.7,245h18.8c2.6,0,4,3.2,2.1,5.1l-31.5,31.6c-1.9,1.9-5.1,0.5-5.1-2.1v-19
	c0-1,0.4-2,1.2-2.8l11.7-11.7C1039.7,245.4,1040.7,245,1041.7,245z"/>
<path id="SVGID_31_" class="st0" d="M1026.8,198.4l36,36c1.9,1.9,0.5,5.1-2.1,5.1l-18.8,0.1c-1,0-2-0.4-2.8-1.1l-14-14
	c-0.8-0.8-2.2-0.8-3.1,0l-16.2,16.2c-0.8,0.8-0.8,2.2,0,3.1l14,14c0.7,0.7,1.2,1.7,1.1,2.8l-0.1,19.1c0,2.6-3.2,4-5.1,2.1
	l-36.2-36.3c-1.7-1.7-1.7-4.6,0-6.3l40.9-40.7C1022.2,196.7,1025,196.7,1026.8,198.4z"/>
<path id="SVGID_30_" class="st0" d="M1157.1,245.3h18.8c2.6,0,4,3.2,2.1,5.1l-31.5,31.6c-1.9,1.9-5.1,0.5-5.1-2.1v-19
	c0-1,0.4-2,1.2-2.8l11.7-11.7C1155.1,245.7,1156,245.3,1157.1,245.3z"/>
<path id="SVGID_29_" class="st0" d="M1142.1,198.8l36,36c1.9,1.9,0.5,5.1-2.1,5.1l-18.8,0.1c-1,0-2-0.4-2.8-1.1l-14-14
	c-0.8-0.8-2.2-0.8-3.1,0l-16.2,16.2c-0.8,0.8-0.8,2.2,0,3.1l14,14c0.7,0.7,1.2,1.7,1.1,2.8l-0.1,19.1c0,2.6-3.2,4-5.1,2.1
	l-36.2-36.3c-1.7-1.7-1.7-4.6,0-6.3l40.9-40.7C1137.6,197,1140.4,197,1142.1,198.8z"/>
<path id="SVGID_28_" class="st0" d="M1272.3,245.1h18.8c2.6,0,4,3.2,2.1,5.1l-31.5,31.6c-1.9,1.9-5.1,0.5-5.1-2.1v-19
	c0-1,0.4-2,1.2-2.8l11.7-11.7C1270.3,245.5,1271.3,245.1,1272.3,245.1z"/>
<path id="SVGID_27_" class="st0" d="M1257.4,198.6l36,36c1.9,1.9,0.5,5.1-2.1,5.1l-18.8,0.1c-1,0-2-0.4-2.8-1.1l-14-14
	c-0.8-0.8-2.2-0.8-3.1,0l-16.2,16.2c-0.8,0.8-0.8,2.2,0,3.1l14,14c0.7,0.7,1.2,1.7,1.1,2.8l-0.1,19.1c0,2.6-3.2,4-5.1,2.1
	l-36.2-36.3c-1.7-1.7-1.7-4.6,0-6.3l40.9-40.7C1252.8,196.8,1255.6,196.9,1257.4,198.6z"/>
<path id="SVGID_26_" class="st0" d="M1387.7,245.4h18.8c2.6,0,4,3.2,2.1,5.1l-31.5,31.6c-1.9,1.9-5.1,0.5-5.1-2.1v-19
	c0-1,0.4-2,1.2-2.8l11.7-11.7C1385.7,245.8,1386.6,245.4,1387.7,245.4z"/>
<path id="SVGID_25_" class="st0" d="M1372.7,198.9l36,36c1.9,1.9,0.5,5.1-2.1,5.1l-18.8,0.1c-1,0-2-0.4-2.8-1.1l-14-14
	c-0.8-0.8-2.2-0.8-3.1,0l-16.2,16.2c-0.8,0.8-0.8,2.2,0,3.1l14,14c0.7,0.7,1.2,1.7,1.1,2.8l-0.1,19.1c0,2.6-3.2,4-5.1,2.1
	l-36.2-36.3c-1.7-1.7-1.7-4.6,0-6.3l40.9-40.7C1368.2,197.1,1371,197.2,1372.7,198.9z"/>
<path id="SVGID_24_" class="st0" d="M1502.9,245.1h18.8c2.6,0,4,3.2,2.1,5.1l-31.5,31.6c-1.9,1.9-5.1,0.5-5.1-2.1v-19
	c0-1,0.4-2,1.2-2.8l11.7-11.7C1500.9,245.5,1501.9,245.1,1502.9,245.1z"/>
<path id="SVGID_23_" class="st0" d="M1487.9,198.5l36,36c1.9,1.9,0.5,5.1-2.1,5.1l-18.8,0.1c-1,0-2-0.4-2.8-1.1l-14-14
	c-0.8-0.8-2.2-0.8-3.1,0l-16.2,16.2c-0.8,0.8-0.8,2.2,0,3.1l14,14c0.7,0.7,1.2,1.7,1.1,2.8l-0.1,19.1c0,2.6-3.2,4-5.1,2.1
	l-36.2-36.3c-1.7-1.7-1.7-4.6,0-6.3l40.9-40.7C1483.4,196.8,1486.2,196.8,1487.9,198.5z"/>
<path id="SVGID_22_" class="st0" d="M1618.2,245.4h18.8c2.6,0,4,3.2,2.1,5.1l-31.5,31.6c-1.9,1.9-5.1,0.5-5.1-2.1v-19
	c0-1,0.4-2,1.2-2.8l11.7-11.7C1616.2,245.8,1617.2,245.4,1618.2,245.4z"/>
<path id="SVGID_21_" class="st0" d="M1603.3,198.8l36,36c1.9,1.9,0.5,5.1-2.1,5.1l-18.8,0.1c-1,0-2-0.4-2.8-1.1l-14-14
	c-0.8-0.8-2.2-0.8-3.1,0l-16.2,16.2c-0.8,0.8-0.8,2.2,0,3.1l14,14c0.7,0.7,1.2,1.7,1.1,2.8l-0.1,19.1c0,2.6-3.2,4-5.1,2.1
	l-36.2-36.3c-1.7-1.7-1.7-4.6,0-6.3l40.9-40.7C1598.7,197.1,1601.5,197.1,1603.3,198.8z"/>
<path id="SVGID_20_" class="st0" d="M1733.5,245.2h18.8c2.6,0,4,3.2,2.1,5.1l-31.5,31.6c-1.9,1.9-5.1,0.5-5.1-2.1v-19
	c0-1,0.4-2,1.2-2.8l11.7-11.7C1731.5,245.6,1732.5,245.2,1733.5,245.2z"/>
<path id="SVGID_19_" class="st0" d="M1718.5,198.7l36,36c1.9,1.9,0.5,5.1-2.1,5.1l-18.8,0.1c-1,0-2-0.4-2.8-1.1l-14-14
	c-0.8-0.8-2.2-0.8-3.1,0l-16.2,16.2c-0.8,0.8-0.8,2.2,0,3.1l14,14c0.7,0.7,1.2,1.7,1.1,2.8l-0.1,19.1c0,2.6-3.2,4-5.1,2.1
	l-36.2-36.3c-1.7-1.7-1.7-4.6,0-6.3l40.9-40.7C1714,196.9,1716.8,196.9,1718.5,198.7z"/>
<path id="SVGID_18_" class="st0" d="M1848.8,245.5h18.8c2.6,0,4,3.2,2.1,5.1l-31.5,31.6c-1.9,1.9-5.1,0.5-5.1-2.1v-19
	c0-1,0.4-2,1.2-2.8l11.7-11.7C1846.8,245.9,1847.8,245.5,1848.8,245.5z"/>
<path id="SVGID_17_" class="st0" d="M1833.9,199l36,36c1.9,1.9,0.5,5.1-2.1,5.1l-18.8,0.1c-1,0-2-0.4-2.8-1.1l-14-14
	c-0.8-0.8-2.2-0.8-3.1,0l-16.2,16.2c-0.8,0.8-0.8,2.2,0,3.1l14,14c0.7,0.7,1.2,1.7,1.1,2.8l-0.1,19.1c0,2.6-3.2,4-5.1,2.1
	l-36.2-36.3c-1.7-1.7-1.7-4.6,0-6.3l40.9-40.7C1829.3,197.2,1832.1,197.2,1833.9,199z"/>
<path id="SVGID_34_" class="st0" d="M165.4,160.5H180c2.1,0,3.1,2.5,1.6,3.9L157.2,189c-1.5,1.5-3.9,0.4-3.9-1.6v-14.8
	c0-0.8,0.3-1.6,0.9-2.1l9.1-9.1C163.9,160.9,164.6,160.5,165.4,160.5z"/>
<path id="SVGID_33_" class="st0" d="M153.8,124.4l27.9,27.9c1.5,1.5,0.4,3.9-1.6,3.9l-14.6,0c-0.8,0-1.6-0.3-2.1-0.9l-10.9-10.8
	c-0.7-0.7-1.7-0.7-2.4,0l-12.6,12.6c-0.7,0.7-0.7,1.7,0,2.4l10.9,10.9c0.6,0.6,0.9,1.3,0.9,2.1l0,14.8c0,2.1-2.5,3.1-3.9,1.6
	l-28.1-28.2c-1.3-1.3-1.3-3.5,0-4.9l31.7-31.6C150.3,123.1,152.5,123.1,153.8,124.4z"/>
<path id="SVGID_36_" class="st0" d="M281.4,160.9H296c2.1,0,3.1,2.5,1.6,3.9l-24.4,24.5c-1.5,1.5-3.9,0.4-3.9-1.6V173
	c0-0.8,0.3-1.6,0.9-2.1l9.1-9.1C279.8,161.2,280.6,160.9,281.4,160.9z"/>
<path id="SVGID_35_" class="st0" d="M269.8,124.8l27.9,27.9c1.5,1.5,0.4,3.9-1.6,3.9l-14.6,0c-0.8,0-1.6-0.3-2.1-0.9L268.5,145
	c-0.7-0.7-1.7-0.7-2.4,0l-12.6,12.6c-0.7,0.7-0.7,1.7,0,2.4l10.9,10.9c0.6,0.6,0.9,1.3,0.9,2.1l0,14.8c0,2.1-2.5,3.1-3.9,1.6
	l-28.1-28.2c-1.3-1.3-1.3-3.5,0-4.9l31.7-31.6C266.2,123.5,268.4,123.5,269.8,124.8z"/>
<path id="SVGID_40_" class="st0" d="M397.1,160.7h14.6c2.1,0,3.1,2.5,1.6,3.9L389,189.2c-1.5,1.5-3.9,0.4-3.9-1.6v-14.8
	c0-0.8,0.3-1.6,0.9-2.1l9.1-9.1C395.6,161.1,396.3,160.7,397.1,160.7z"/>
<path id="SVGID_39_" class="st0" d="M385.5,124.6l27.9,27.9c1.5,1.5,0.4,3.9-1.6,3.9l-14.6,0c-0.8,0-1.6-0.3-2.1-0.9l-10.9-10.8
	c-0.7-0.7-1.7-0.7-2.4,0l-12.6,12.6c-0.7,0.7-0.7,1.7,0,2.4l10.9,10.9c0.6,0.6,0.9,1.3,0.9,2.1l0,14.8c0,2.1-2.5,3.1-3.9,1.6
	l-28.1-28.2c-1.3-1.3-1.3-3.5,0-4.9l31.7-31.6C382,123.3,384.2,123.3,385.5,124.6z"/>
<path id="SVGID_38_" class="st0" d="M513.1,161.1h14.6c2.1,0,3.1,2.5,1.6,3.9l-24.4,24.5c-1.5,1.5-3.9,0.4-3.9-1.6v-14.8
	c0-0.8,0.3-1.6,0.9-2.1l9.1-9.1C511.6,161.4,512.3,161.1,513.1,161.1z"/>
<path id="SVGID_37_" class="st0" d="M501.5,125l27.9,27.9c1.5,1.5,0.4,3.9-1.6,3.9l-14.6,0c-0.8,0-1.6-0.3-2.1-0.9l-10.9-10.8
	c-0.7-0.7-1.7-0.7-2.4,0l-12.6,12.6c-0.7,0.7-0.7,1.7,0,2.4l10.9,10.9c0.6,0.6,0.9,1.3,0.9,2.1l0,14.8c0,2.1-2.5,3.1-3.9,1.6
	l-28.1-28.2c-1.3-1.3-1.3-3.5,0-4.9l31.7-31.6C498,123.7,500.2,123.7,501.5,125z"/>
<path id="SVGID_48_" class="st0" d="M628.7,160.7h14.6c2.1,0,3.1,2.5,1.6,3.9l-24.4,24.5c-1.5,1.5-3.9,0.4-3.9-1.6v-14.8
	c0-0.8,0.3-1.6,0.9-2.1l9.1-9.1C627.2,161,627.9,160.7,628.7,160.7z"/>
<path id="SVGID_47_" class="st0" d="M617.1,124.6l27.9,27.9c1.5,1.5,0.4,3.9-1.6,3.9l-14.6,0c-0.8,0-1.6-0.3-2.1-0.9l-10.9-10.8
	c-0.7-0.7-1.7-0.7-2.4,0l-12.6,12.6c-0.7,0.7-0.7,1.7,0,2.4l10.9,10.9c0.6,0.6,0.9,1.3,0.9,2.1l0,14.8c0,2.1-2.5,3.1-3.9,1.6
	L580.5,161c-1.3-1.3-1.3-3.5,0-4.9l31.7-31.6C613.6,123.2,615.8,123.2,617.1,124.6z"/>
<path id="SVGID_46_" class="st0" d="M744.7,161.1h14.6c2.1,0,3.1,2.5,1.6,3.9l-24.4,24.5c-1.5,1.5-3.9,0.4-3.9-1.6v-14.8
	c0-0.8,0.3-1.6,0.9-2.1l9.1-9.1C743.1,161.4,743.9,161.1,744.7,161.1z"/>
<path id="SVGID_45_" class="st0" d="M733.1,125l27.9,27.9c1.5,1.5,0.4,3.9-1.6,3.9l-14.6,0c-0.8,0-1.6-0.3-2.1-0.9l-10.9-10.8
	c-0.7-0.7-1.7-0.7-2.4,0l-12.6,12.6c-0.7,0.7-0.7,1.7,0,2.4l10.9,10.9c0.6,0.6,0.9,1.3,0.9,2.1l0,14.8c0,2.1-2.5,3.1-3.9,1.6
	l-28.1-28.2c-1.3-1.3-1.3-3.5,0-4.9l31.7-31.6C729.6,123.6,731.7,123.6,733.1,125z"/>
<path id="SVGID_44_" class="st0" d="M860.5,160.9h14.6c2.1,0,3.1,2.5,1.6,3.9l-24.4,24.5c-1.5,1.5-3.9,0.4-3.9-1.6V173
	c0-0.8,0.3-1.6,0.9-2.1l9.1-9.1C858.9,161.2,859.7,160.9,860.5,160.9z"/>
<path id="SVGID_43_" class="st0" d="M848.9,124.8l27.9,27.9c1.5,1.5,0.4,3.9-1.6,3.9l-14.6,0c-0.8,0-1.6-0.3-2.1-0.9L847.5,145
	c-0.7-0.7-1.7-0.7-2.4,0l-12.6,12.6c-0.7,0.7-0.7,1.7,0,2.4l10.9,10.9c0.6,0.6,0.9,1.3,0.9,2.1l0,14.8c0,2.1-2.5,3.1-3.9,1.6
	l-28.1-28.2c-1.3-1.3-1.3-3.5,0-4.9l31.7-31.6C845.3,123.4,847.5,123.4,848.9,124.8z"/>
<path id="SVGID_42_" class="st0" d="M976.4,161.3H991c2.1,0,3.1,2.5,1.6,3.9l-24.4,24.5c-1.5,1.5-3.9,0.4-3.9-1.6v-14.8
	c0-0.8,0.3-1.6,0.9-2.1l9.1-9.1C974.9,161.6,975.6,161.3,976.4,161.3z"/>
<path id="SVGID_41_" class="st0" d="M964.8,125.2l27.9,27.9c1.5,1.5,0.4,3.9-1.6,3.9l-14.6,0c-0.8,0-1.6-0.3-2.1-0.9l-10.9-10.8
	c-0.7-0.7-1.7-0.7-2.4,0l-12.6,12.6c-0.7,0.7-0.7,1.7,0,2.4l10.9,10.9c0.6,0.6,0.9,1.3,0.9,2.1l0,14.8c0,2.1-2.5,3.1-3.9,1.6
	l-28.1-28.2c-1.3-1.3-1.3-3.5,0-4.9l31.7-31.6C961.3,123.8,963.5,123.8,964.8,125.2z"/>
<path id="SVGID_64_" class="st0" d="M1092,160.4h14.6c2.1,0,3.1,2.5,1.6,3.9l-24.4,24.5c-1.5,1.5-3.9,0.4-3.9-1.6v-14.8
	c0-0.8,0.3-1.6,0.9-2.1l9.1-9.1C1090.5,160.7,1091.2,160.4,1092,160.4z"/>
<path id="SVGID_63_" class="st0" d="M1080.4,124.3l27.9,27.9c1.5,1.5,0.4,3.9-1.6,3.9l-14.6,0c-0.8,0-1.6-0.3-2.1-0.9l-10.9-10.8
	c-0.7-0.7-1.7-0.7-2.4,0l-12.6,12.6c-0.7,0.7-0.7,1.7,0,2.4l10.9,10.9c0.6,0.6,0.9,1.3,0.9,2.1l0,14.8c0,2.1-2.5,3.1-3.9,1.6
	l-28.1-28.2c-1.3-1.3-1.3-3.5,0-4.9l31.7-31.6C1076.9,122.9,1079.1,123,1080.4,124.3z"/>
<path id="SVGID_62_" class="st0" d="M1208,160.8h14.6c2.1,0,3.1,2.5,1.6,3.9l-24.4,24.5c-1.5,1.5-3.9,0.4-3.9-1.6v-14.8
	c0-0.8,0.3-1.6,0.9-2.1l9.1-9.1C1206.4,161.1,1207.2,160.8,1208,160.8z"/>
<path id="SVGID_61_" class="st0" d="M1196.4,124.7l27.9,27.9c1.5,1.5,0.4,3.9-1.6,3.9l-14.6,0c-0.8,0-1.6-0.3-2.1-0.9l-10.9-10.8
	c-0.7-0.7-1.7-0.7-2.4,0l-12.6,12.6c-0.7,0.7-0.7,1.7,0,2.4l10.9,10.9c0.6,0.6,0.9,1.3,0.9,2.1l0,14.8c0,2.1-2.5,3.1-3.9,1.6
	l-28.1-28.2c-1.3-1.3-1.3-3.5,0-4.9l31.7-31.6C1192.8,123.3,1195,123.4,1196.4,124.7z"/>
<path id="SVGID_60_" class="st0" d="M1323.7,160.6h14.6c2.1,0,3.1,2.5,1.6,3.9l-24.4,24.5c-1.5,1.5-3.9,0.4-3.9-1.6v-14.8
	c0-0.8,0.3-1.6,0.9-2.1l9.1-9.1C1322.2,160.9,1322.9,160.6,1323.7,160.6z"/>
<path id="SVGID_59_" class="st0" d="M1312.1,124.5l27.9,27.9c1.5,1.5,0.4,3.9-1.6,3.9l-14.6,0c-0.8,0-1.6-0.3-2.1-0.9l-10.9-10.8
	c-0.7-0.7-1.7-0.7-2.4,0l-12.6,12.6c-0.7,0.7-0.7,1.7,0,2.4l10.9,10.9c0.6,0.6,0.9,1.3,0.9,2.1l0,14.8c0,2.1-2.5,3.1-3.9,1.6
	l-28.1-28.2c-1.3-1.3-1.3-3.5,0-4.9l31.7-31.6C1308.6,123.1,1310.8,123.2,1312.1,124.5z"/>
<path id="SVGID_58_" class="st0" d="M1439.7,161h14.6c2.1,0,3.1,2.5,1.6,3.9l-24.4,24.5c-1.5,1.5-3.9,0.4-3.9-1.6v-14.8
	c0-0.8,0.3-1.6,0.9-2.1l9.1-9.1C1438.1,161.3,1438.9,161,1439.7,161z"/>
<path id="SVGID_57_" class="st0" d="M1428.1,124.9l27.9,27.9c1.5,1.5,0.4,3.9-1.6,3.9l-14.6,0c-0.8,0-1.6-0.3-2.1-0.9l-10.9-10.8
	c-0.7-0.7-1.7-0.7-2.4,0l-12.6,12.6c-0.7,0.7-0.7,1.7,0,2.4l10.9,10.9c0.6,0.6,0.9,1.3,0.9,2.1l0,14.8c0,2.1-2.5,3.1-3.9,1.6
	l-28.1-28.2c-1.3-1.3-1.3-3.5,0-4.9l31.7-31.6C1424.6,123.5,1426.7,123.6,1428.1,124.9z"/>
<path id="SVGID_56_" class="st0" d="M1555.3,160.6h14.6c2.1,0,3.1,2.5,1.6,3.9l-24.4,24.5c-1.5,1.5-3.9,0.4-3.9-1.6v-14.8
	c0-0.8,0.3-1.6,0.9-2.1l9.1-9.1C1553.8,160.9,1554.5,160.6,1555.3,160.6z"/>
<path id="SVGID_55_" class="st0" d="M1543.7,124.4l27.9,27.9c1.5,1.5,0.4,3.9-1.6,3.9l-14.6,0c-0.8,0-1.6-0.3-2.1-0.9l-10.9-10.8
	c-0.7-0.7-1.7-0.7-2.4,0l-12.6,12.6c-0.7,0.7-0.7,1.7,0,2.4l10.9,10.9c0.6,0.6,0.9,1.3,0.9,2.1l0,14.8c0,2.1-2.5,3.1-3.9,1.6
	l-28.1-28.2c-1.3-1.3-1.3-3.5,0-4.9l31.7-31.6C1540.2,123.1,1542.4,123.1,1543.7,124.4z"/>
<path id="SVGID_54_" class="st0" d="M1671.3,161h14.6c2.1,0,3.1,2.5,1.6,3.9l-24.4,24.5c-1.5,1.5-3.9,0.4-3.9-1.6V173
	c0-0.8,0.3-1.6,0.9-2.1l9.1-9.1C1669.7,161.3,1670.5,161,1671.3,161z"/>
<path id="SVGID_53_" class="st0" d="M1659.7,124.8l27.9,27.9c1.5,1.5,0.4,3.9-1.6,3.9l-14.6,0c-0.8,0-1.6-0.3-2.1-0.9l-10.9-10.8
	c-0.7-0.7-1.7-0.7-2.4,0l-12.6,12.6c-0.7,0.7-0.7,1.7,0,2.4l10.9,10.9c0.6,0.6,0.9,1.3,0.9,2.1l0,14.8c0,2.1-2.5,3.1-3.9,1.6
	l-28.1-28.2c-1.3-1.3-1.3-3.5,0-4.9l31.7-31.6C1656.2,123.5,1658.3,123.5,1659.7,124.8z"/>
<path id="SVGID_52_" class="st0" d="M1787.1,160.8h14.6c2.1,0,3.1,2.5,1.6,3.9l-24.4,24.5c-1.5,1.5-3.9,0.4-3.9-1.6v-14.8
	c0-0.8,0.3-1.6,0.9-2.1l9.1-9.1C1785.5,161.1,1786.3,160.8,1787.1,160.8z"/>
<path id="SVGID_51_" class="st0" d="M1775.4,124.6l27.9,27.9c1.5,1.5,0.4,3.9-1.6,3.9l-14.6,0c-0.8,0-1.6-0.3-2.1-0.9l-10.9-10.8
	c-0.7-0.7-1.7-0.7-2.4,0l-12.6,12.6c-0.7,0.7-0.7,1.7,0,2.4l10.9,10.9c0.6,0.6,0.9,1.3,0.9,2.1l0,14.8c0,2.1-2.5,3.1-3.9,1.6
	l-28.1-28.2c-1.3-1.3-1.3-3.5,0-4.9l31.7-31.6C1771.9,123.3,1774.1,123.3,1775.4,124.6z"/>
<path id="SVGID_50_" class="st0" d="M1903,161.2h14.6c2.1,0,3.1,2.5,1.6,3.9l-24.4,24.5c-1.5,1.5-3.9,0.4-3.9-1.6v-14.8
	c0-0.8,0.3-1.6,0.9-2.1l9.1-9.1C1901.5,161.5,1902.2,161.2,1903,161.2z"/>
<path id="SVGID_49_" class="st0" d="M1891.4,125l27.9,27.9c1.5,1.5,0.4,3.9-1.6,3.9l-14.6,0c-0.8,0-1.6-0.3-2.1-0.9l-10.9-10.8
	c-0.7-0.7-1.7-0.7-2.4,0l-12.6,12.6c-0.7,0.7-0.7,1.7,0,2.4l10.9,10.9c0.6,0.6,0.9,1.3,0.9,2.1l0,14.8c0,2.1-2.5,3.1-3.9,1.6
	l-28.1-28.2c-1.3-1.3-1.3-3.5,0-4.9l31.7-31.6C1887.9,123.7,1890.1,123.7,1891.4,125z"/>
<path id="SVGID_66_" class="st0" d="M49.2,160.7h14.6c2.1,0,3.1,2.5,1.6,3.9l-24.4,24.5c-1.5,1.5-3.9,0.4-3.9-1.6v-14.8
	c0-0.8,0.3-1.6,0.9-2.1l9.1-9.1C47.7,161,48.5,160.7,49.2,160.7z"/>
<path id="SVGID_65_" class="st0" d="M37.6,124.6l27.9,27.9c1.5,1.5,0.4,3.9-1.6,3.9l-14.6,0c-0.8,0-1.6-0.3-2.1-0.9l-10.9-10.8
	c-0.7-0.7-1.7-0.7-2.4,0l-12.6,12.6c-0.7,0.7-0.7,1.7,0,2.4l10.9,10.9c0.6,0.6,0.9,1.3,0.9,2.1l0,14.8c0,2.1-2.5,3.1-3.9,1.6L1,161
	c-1.3-1.3-1.3-3.5,0-4.9l31.7-31.6C34.1,123.2,36.3,123.2,37.6,124.6z"/>
<path id="SVGID_68_" class="st0" d="M112,90.9h12.4c1.7,0,2.6,2.1,1.4,3.4L105,115.2c-1.2,1.2-3.4,0.4-3.4-1.4v-12.6
	c0-0.7,0.3-1.3,0.8-1.8l7.8-7.7C110.7,91.2,111.3,90.9,112,90.9z"/>
<path id="SVGID_67_" class="st0" d="M102.1,60.1l23.8,23.8c1.2,1.2,0.4,3.4-1.4,3.4l-12.4,0c-0.7,0-1.3-0.3-1.8-0.7l-9.3-9.2
	c-0.6-0.6-1.5-0.6-2,0L88.2,88c-0.6,0.6-0.6,1.5,0,2l9.3,9.3c0.5,0.5,0.8,1.1,0.7,1.8l0,12.6c0,1.7-2.1,2.6-3.4,1.4l-24-24
	c-1.1-1.1-1.1-3,0-4.2l27.1-27C99.1,58.9,101,58.9,102.1,60.1z"/>
<path id="SVGID_70_" class="st0" d="M227.6,90.8H240c1.7,0,2.6,2.1,1.4,3.4l-20.8,20.9c-1.2,1.2-3.4,0.4-3.4-1.4v-12.6
	c0-0.7,0.3-1.3,0.8-1.8l7.8-7.7C226.2,91.1,226.9,90.8,227.6,90.8z"/>
<path id="SVGID_69_" class="st0" d="M217.7,60l23.8,23.8c1.2,1.2,0.4,3.4-1.4,3.4l-12.4,0c-0.7,0-1.3-0.3-1.8-0.7l-9.3-9.2
	c-0.6-0.6-1.5-0.6-2,0L203.8,88c-0.6,0.6-0.6,1.5,0,2l9.3,9.3c0.5,0.5,0.8,1.1,0.7,1.8l0,12.6c0,1.7-2.1,2.6-3.4,1.4l-24-24
	c-1.1-1.1-1.1-3,0-4.2l27.1-27C214.7,58.8,216.5,58.8,217.7,60z"/>
<path id="SVGID_72_" class="st0" d="M342.8,90.8h12.4c1.7,0,2.6,2.1,1.4,3.4l-20.8,20.9c-1.2,1.2-3.4,0.4-3.4-1.4v-12.6
	c0-0.7,0.3-1.3,0.8-1.8l7.8-7.7C341.4,91.1,342.1,90.8,342.8,90.8z"/>
<path id="SVGID_71_" class="st0" d="M332.9,60l23.8,23.8c1.2,1.2,0.4,3.4-1.4,3.4l-12.4,0c-0.7,0-1.3-0.3-1.8-0.7l-9.3-9.2
	c-0.6-0.6-1.5-0.6-2,0L319,88c-0.6,0.6-0.6,1.5,0,2l9.3,9.3c0.5,0.5,0.8,1.1,0.7,1.8l0,12.6c0,1.7-2.1,2.6-3.4,1.4l-24-24
	c-1.1-1.1-1.1-3,0-4.2l27.1-27C329.9,58.8,331.7,58.8,332.9,60z"/>
<path id="SVGID_78_" class="st0" d="M457.8,90.8h12.4c1.7,0,2.6,2.1,1.4,3.4l-20.8,20.9c-1.2,1.2-3.4,0.4-3.4-1.4v-12.6
	c0-0.7,0.3-1.3,0.8-1.8l7.8-7.7C456.5,91.1,457.1,90.8,457.8,90.8z"/>
<path id="SVGID_77_" class="st0" d="M447.9,60l23.8,23.8c1.2,1.2,0.4,3.4-1.4,3.4l-12.4,0c-0.7,0-1.3-0.3-1.8-0.7l-9.3-9.2
	c-0.6-0.6-1.5-0.6-2,0L434,88c-0.6,0.6-0.6,1.5,0,2l9.3,9.3c0.5,0.5,0.8,1.1,0.7,1.8l0,12.6c0,1.7-2.1,2.6-3.4,1.4l-24-24
	c-1.1-1.1-1.1-3,0-4.2l27.1-27C444.9,58.9,446.7,58.9,447.9,60z"/>
<path id="SVGID_76_" class="st0" d="M573.4,90.8h12.4c1.7,0,2.6,2.1,1.4,3.4l-20.8,20.9c-1.2,1.2-3.4,0.4-3.4-1.4v-12.6
	c0-0.7,0.3-1.3,0.8-1.8l7.8-7.7C572,91,572.7,90.8,573.4,90.8z"/>
<path id="SVGID_75_" class="st0" d="M563.5,59.9l23.8,23.8c1.2,1.2,0.4,3.4-1.4,3.4l-12.4,0c-0.7,0-1.3-0.3-1.8-0.7l-9.3-9.2
	c-0.6-0.6-1.5-0.6-2,0l-10.7,10.7c-0.6,0.6-0.6,1.5,0,2l9.3,9.3c0.5,0.5,0.8,1.1,0.7,1.8l0,12.6c0,1.7-2.1,2.6-3.4,1.4l-24-24
	c-1.1-1.1-1.1-3,0-4.2l27.1-27C560.4,58.8,562.3,58.8,563.5,59.9z"/>
<path id="SVGID_74_" class="st0" d="M688.6,90.8H701c1.7,0,2.6,2.1,1.4,3.4l-20.8,20.9c-1.2,1.2-3.4,0.4-3.4-1.4v-12.6
	c0-0.7,0.3-1.3,0.8-1.8l7.8-7.7C687.2,91,687.9,90.8,688.6,90.8z"/>
<path id="SVGID_73_" class="st0" d="M678.7,59.9l23.8,23.8c1.2,1.2,0.4,3.4-1.4,3.4l-12.4,0c-0.7,0-1.3-0.3-1.8-0.7l-9.3-9.2
	c-0.6-0.6-1.5-0.6-2,0l-10.7,10.7c-0.6,0.6-0.6,1.5,0,2l9.3,9.3c0.5,0.5,0.8,1.1,0.7,1.8l0,12.6c0,1.7-2.1,2.6-3.4,1.4l-24-24
	c-1.1-1.1-1.1-3,0-4.2l27.1-27C675.6,58.8,677.5,58.8,678.7,59.9z"/>
<path id="SVGID_84_" class="st0" d="M803.8,90.3h12.4c1.7,0,2.6,2.1,1.4,3.4l-20.8,20.9c-1.2,1.2-3.4,0.4-3.4-1.4v-12.6
	c0-0.7,0.3-1.3,0.8-1.8L802,91C802.4,90.5,803.1,90.3,803.8,90.3z"/>
<path id="SVGID_83_" class="st0" d="M793.9,59.4l23.8,23.8c1.2,1.2,0.4,3.4-1.4,3.4l-12.4,0c-0.7,0-1.3-0.3-1.8-0.7l-9.3-9.2
	c-0.6-0.6-1.5-0.6-2,0L780,87.4c-0.6,0.6-0.6,1.5,0,2l9.3,9.3c0.5,0.5,0.8,1.1,0.7,1.8l0,12.6c0,1.7-2.1,2.6-3.4,1.4l-24-24
	c-1.1-1.1-1.1-3,0-4.2l27.1-27C790.8,58.3,792.7,58.3,793.9,59.4z"/>
<path id="SVGID_82_" class="st0" d="M919.3,90.2h12.4c1.7,0,2.6,2.1,1.4,3.4l-20.8,20.9c-1.2,1.2-3.4,0.4-3.4-1.4v-12.6
	c0-0.7,0.3-1.3,0.8-1.8l7.8-7.7C918,90.4,918.7,90.2,919.3,90.2z"/>
<path id="SVGID_81_" class="st0" d="M909.4,59.4l23.8,23.8c1.2,1.2,0.4,3.4-1.4,3.4l-12.4,0c-0.7,0-1.3-0.3-1.8-0.7l-9.3-9.2
	c-0.6-0.6-1.5-0.6-2,0l-10.7,10.7c-0.6,0.6-0.6,1.5,0,2l9.3,9.3c0.5,0.5,0.8,1.1,0.7,1.8l0,12.6c0,1.7-2.1,2.6-3.4,1.4l-24-24
	c-1.1-1.1-1.1-3,0-4.2l27.1-27C906.4,58.2,908.3,58.2,909.4,59.4z"/>
<path id="SVGID_80_" class="st0" d="M1034.5,90.2h12.4c1.7,0,2.6,2.1,1.4,3.4l-20.8,20.9c-1.2,1.2-3.4,0.4-3.4-1.4v-12.6
	c0-0.7,0.3-1.3,0.8-1.8l7.8-7.7C1033.2,90.4,1033.9,90.2,1034.5,90.2z"/>
<path id="SVGID_79_" class="st0" d="M1024.6,59.4l23.8,23.8c1.2,1.2,0.4,3.4-1.4,3.4l-12.4,0c-0.7,0-1.3-0.3-1.8-0.7l-9.3-9.2
	c-0.6-0.6-1.5-0.6-2,0l-10.7,10.7c-0.6,0.6-0.6,1.5,0,2l9.3,9.3c0.5,0.5,0.8,1.1,0.7,1.8l0,12.6c0,1.7-2.1,2.6-3.4,1.4l-24-24
	c-1.1-1.1-1.1-3,0-4.2l27.1-27C1021.6,58.2,1023.5,58.2,1024.6,59.4z"/>
<path id="SVGID_98_" class="st0" d="M1150.1,91h12.4c1.7,0,2.6,2.1,1.4,3.4l-20.8,20.9c-1.2,1.2-3.4,0.4-3.4-1.4v-12.6
	c0-0.7,0.3-1.3,0.8-1.8l7.8-7.7C1148.8,91.3,1149.5,91,1150.1,91z"/>
<path id="SVGID_97_" class="st0" d="M1140.2,60.2l23.8,23.8c1.2,1.2,0.4,3.4-1.4,3.4l-12.4,0c-0.7,0-1.3-0.3-1.8-0.7l-9.3-9.2
	c-0.6-0.6-1.5-0.6-2,0l-10.7,10.7c-0.6,0.6-0.6,1.5,0,2l9.3,9.3c0.5,0.5,0.8,1.1,0.7,1.8l0,12.6c0,1.7-2.1,2.6-3.4,1.4l-24-24
	c-1.1-1.1-1.1-3,0-4.2l27.1-27C1137.2,59,1139.1,59,1140.2,60.2z"/>
<path id="SVGID_96_" class="st0" d="M1265.2,91h12.4c1.7,0,2.6,2.1,1.4,3.4l-20.8,20.9c-1.2,1.2-3.4,0.4-3.4-1.4v-12.6
	c0-0.7,0.3-1.3,0.8-1.8l7.8-7.7C1263.8,91.3,1264.5,91,1265.2,91z"/>
<path id="SVGID_95_" class="st0" d="M1255.3,60.2l23.8,23.8c1.2,1.2,0.4,3.4-1.4,3.4l-12.4,0c-0.7,0-1.3-0.3-1.8-0.7l-9.3-9.2
	c-0.6-0.6-1.5-0.6-2,0l-10.7,10.7c-0.6,0.6-0.6,1.5,0,2l9.3,9.3c0.5,0.5,0.8,1.1,0.7,1.8l0,12.6c0,1.7-2.1,2.6-3.4,1.4l-24-24
	c-1.1-1.1-1.1-3,0-4.2l27.1-27C1252.2,59.1,1254.1,59.1,1255.3,60.2z"/>
<path id="SVGID_94_" class="st0" d="M1380.7,91h12.4c1.7,0,2.6,2.1,1.4,3.4l-20.8,20.9c-1.2,1.2-3.4,0.4-3.4-1.4v-12.6
	c0-0.7,0.3-1.3,0.8-1.8l7.8-7.7C1379.4,91.2,1380.1,91,1380.7,91z"/>
<path id="SVGID_93_" class="st0" d="M1370.8,60.1l23.8,23.8c1.2,1.2,0.4,3.4-1.4,3.4l-12.4,0c-0.7,0-1.3-0.3-1.8-0.7l-9.3-9.2
	c-0.6-0.6-1.5-0.6-2,0l-10.7,10.7c-0.6,0.6-0.6,1.5,0,2l9.3,9.3c0.5,0.5,0.8,1.1,0.8,1.8l0,12.6c0,1.7-2.1,2.6-3.4,1.4l-24-24
	c-1.1-1.1-1.1-3,0-4.2l27.1-27C1367.8,59,1369.7,59,1370.8,60.1z"/>
<path id="SVGID_92_" class="st0" d="M1495.9,91h12.4c1.7,0,2.6,2.1,1.4,3.4l-20.8,20.9c-1.2,1.2-3.4,0.4-3.4-1.4v-12.6
	c0-0.7,0.3-1.3,0.8-1.8l7.8-7.7C1494.6,91.2,1495.3,91,1495.9,91z"/>
<path id="SVGID_91_" class="st0" d="M1486,60.1l23.8,23.8c1.2,1.2,0.4,3.4-1.4,3.4l-12.4,0c-0.7,0-1.3-0.3-1.8-0.7l-9.3-9.2
	c-0.6-0.6-1.5-0.6-2,0l-10.7,10.7c-0.6,0.6-0.6,1.5,0,2l9.3,9.3c0.5,0.5,0.8,1.1,0.7,1.8l0,12.6c0,1.7-2.1,2.6-3.4,1.4l-24-24
	c-1.1-1.1-1.1-3,0-4.2l27.1-27C1483,59,1484.9,59,1486,60.1z"/>
<path id="SVGID_90_" class="st0" d="M1611.1,90.5h12.4c1.7,0,2.6,2.1,1.4,3.4l-20.8,20.9c-1.2,1.2-3.4,0.4-3.4-1.4v-12.6
	c0-0.7,0.3-1.3,0.8-1.8l7.8-7.7C1609.8,90.7,1610.5,90.5,1611.1,90.5z"/>
<path id="SVGID_89_" class="st0" d="M1601.2,59.6l23.8,23.8c1.2,1.2,0.4,3.4-1.4,3.4l-12.4,0c-0.7,0-1.3-0.3-1.8-0.7l-9.3-9.2
	c-0.6-0.6-1.5-0.6-2,0l-10.7,10.7c-0.6,0.6-0.6,1.5,0,2l9.3,9.3c0.5,0.5,0.8,1.1,0.7,1.8l0,12.6c0,1.7-2.1,2.6-3.4,1.4l-24-24
	c-1.1-1.1-1.1-3,0-4.2l27.1-27C1598.2,58.5,1600.1,58.5,1601.2,59.6z"/>
<path id="SVGID_88_" class="st0" d="M1726.7,90.4h12.4c1.7,0,2.6,2.1,1.4,3.4l-20.8,20.9c-1.2,1.2-3.4,0.4-3.4-1.4v-12.6
	c0-0.7,0.3-1.3,0.8-1.8l7.8-7.7C1725.4,90.6,1726,90.4,1726.7,90.4z"/>
<path id="SVGID_87_" class="st0" d="M1716.8,59.6l23.8,23.8c1.2,1.2,0.4,3.4-1.4,3.4l-12.4,0c-0.7,0-1.3-0.3-1.8-0.7l-9.3-9.2
	c-0.6-0.6-1.5-0.6-2,0l-10.7,10.7c-0.6,0.6-0.6,1.5,0,2l9.3,9.3c0.5,0.5,0.8,1.1,0.7,1.8l0,12.6c0,1.7-2.1,2.6-3.4,1.4l-24-24
	c-1.1-1.1-1.1-3,0-4.2l27.1-27C1713.8,58.4,1715.6,58.4,1716.8,59.6z"/>
<path id="SVGID_86_" class="st0" d="M1841.9,90.4h12.4c1.7,0,2.6,2.1,1.4,3.4l-20.8,20.9c-1.2,1.2-3.4,0.4-3.4-1.4v-12.6
	c0-0.7,0.3-1.3,0.8-1.8l7.8-7.7C1840.6,90.6,1841.2,90.4,1841.9,90.4z"/>
<path id="SVGID_85_" class="st0" d="M1832,59.6l23.8,23.8c1.2,1.2,0.4,3.4-1.4,3.4l-12.4,0c-0.7,0-1.3-0.3-1.8-0.7l-9.3-9.2
	c-0.6-0.6-1.5-0.6-2,0l-10.7,10.7c-0.6,0.6-0.6,1.5,0,2l9.3,9.3c0.5,0.5,0.8,1.1,0.7,1.8l0,12.6c0,1.7-2.1,2.6-3.4,1.4l-24-24
	c-1.1-1.1-1.1-3,0-4.2l27.1-27C1829,58.4,1830.8,58.4,1832,59.6z"/>
<path id="SVGID_100_" class="st0" d="M160.8,30.7h10.4c1.5,0,2.2,1.8,1.2,2.8L155,51c-1,1-2.8,0.3-2.8-1.2V39.3
	c0-0.6,0.2-1.1,0.6-1.5l6.5-6.5C159.7,30.9,160.3,30.7,160.8,30.7z"/>
<path id="SVGID_99_" class="st0" d="M152.5,4.9l19.9,19.9c1,1,0.3,2.8-1.2,2.8l-10.4,0c-0.6,0-1.1-0.2-1.5-0.6l-7.8-7.7
	c-0.5-0.5-1.2-0.5-1.7,0l-9,9c-0.5,0.5-0.5,1.2,0,1.7l7.8,7.8c0.4,0.4,0.6,1,0.6,1.5l0,10.6c0,1.5-1.8,2.2-2.8,1.2l-20.1-20.1
	c-1-1-1-2.5,0-3.5L149,4.9C150,3.9,151.6,3.9,152.5,4.9z"/>
<path id="SVGID_102_" class="st0" d="M276.5,30.3h10.4c1.5,0,2.2,1.8,1.2,2.8l-17.4,17.5c-1,1-2.8,0.3-2.8-1.2V38.9
	c0-0.6,0.2-1.1,0.6-1.5l6.5-6.5C275.4,30.5,275.9,30.3,276.5,30.3z"/>
<path id="SVGID_101_" class="st0" d="M268.2,4.5l19.9,19.9c1,1,0.3,2.8-1.2,2.8l-10.4,0c-0.6,0-1.1-0.2-1.5-0.6l-7.8-7.7
	c-0.5-0.5-1.2-0.5-1.7,0l-9,9c-0.5,0.5-0.5,1.2,0,1.7l7.8,7.8c0.4,0.4,0.6,1,0.6,1.5l0,10.6c0,1.5-1.8,2.2-2.8,1.2l-20.1-20.1
	c-1-1-1-2.5,0-3.5l22.7-22.6C265.7,3.5,267.2,3.5,268.2,4.5z"/>
<path id="SVGID_106_" class="st0" d="M393,29.8h10.4c1.5,0,2.2,1.8,1.2,2.8l-17.4,17.5c-1,1-2.8,0.3-2.8-1.2V38.5
	c0-0.6,0.2-1.1,0.6-1.5l6.5-6.5C391.9,30,392.4,29.8,393,29.8z"/>
<path id="SVGID_105_" class="st0" d="M384.7,4L404.6,24c1,1,0.3,2.8-1.2,2.8l-10.4,0c-0.6,0-1.1-0.2-1.5-0.6l-7.8-7.7
	c-0.5-0.5-1.2-0.5-1.7,0l-9,9c-0.5,0.5-0.5,1.2,0,1.7l7.8,7.8c0.4,0.4,0.6,1,0.6,1.5l0,10.6c0,1.5-1.8,2.2-2.8,1.2l-20.1-20.1
	c-1-1-1-2.5,0-3.5L381.2,4C382.2,3.1,383.7,3.1,384.7,4z"/>
<path id="SVGID_104_" class="st0" d="M508.7,29.4h10.4c1.5,0,2.2,1.8,1.2,2.8l-17.4,17.5c-1,1-2.8,0.3-2.8-1.2V38.1
	c0-0.6,0.2-1.1,0.6-1.5l6.5-6.5C507.5,29.7,508.1,29.4,508.7,29.4z"/>
<path id="SVGID_103_" class="st0" d="M500.4,3.7l19.9,19.9c1,1,0.3,2.8-1.2,2.8l-10.4,0c-0.6,0-1.1-0.2-1.5-0.6l-7.8-7.7
	c-0.5-0.5-1.2-0.5-1.7,0l-9,9c-0.5,0.5-0.5,1.2,0,1.7l7.8,7.8c0.4,0.4,0.6,1,0.6,1.5l0,10.6c0,1.5-1.8,2.2-2.8,1.2l-20.1-20.1
	c-1-1-1-2.5,0-3.5l22.7-22.6C497.8,2.7,499.4,2.7,500.4,3.7z"/>
<path id="SVGID_114_" class="st0" d="M624.3,29.8h10.4c1.5,0,2.2,1.8,1.2,2.8l-17.4,17.5c-1,1-2.8,0.3-2.8-1.2V38.4
	c0-0.6,0.2-1.1,0.6-1.5l6.5-6.5C623.2,30,623.8,29.8,624.3,29.8z"/>
<path id="SVGID_113_" class="st0" d="M616,4L636,23.9c1,1,0.3,2.8-1.2,2.8l-10.4,0c-0.6,0-1.1-0.2-1.5-0.6l-7.8-7.7
	c-0.5-0.5-1.2-0.5-1.7,0l-9,9c-0.5,0.5-0.5,1.2,0,1.7l7.8,7.8c0.4,0.4,0.6,1,0.6,1.5l0,10.6c0,1.5-1.8,2.2-2.8,1.2L589.9,30
	c-1-1-1-2.5,0-3.5L612.5,4C613.5,3,615.1,3,616,4z"/>
<path id="SVGID_112_" class="st0" d="M740,29.4h10.4c1.5,0,2.2,1.8,1.2,2.8l-17.4,17.5c-1,1-2.8,0.3-2.8-1.2V38
	c0-0.6,0.2-1.1,0.6-1.5l6.5-6.5C738.9,29.6,739.4,29.4,740,29.4z"/>
<path id="SVGID_111_" class="st0" d="M731.7,3.6l19.9,19.9c1,1,0.3,2.8-1.2,2.8l-10.4,0c-0.6,0-1.1-0.2-1.5-0.6l-7.8-7.7
	c-0.5-0.5-1.2-0.5-1.7,0l-9,9c-0.5,0.5-0.5,1.2,0,1.7l7.8,7.8c0.4,0.4,0.6,1,0.6,1.5l0,10.6c0,1.5-1.8,2.2-2.8,1.2l-20.1-20.1
	c-1-1-1-2.5,0-3.5l22.7-22.6C729.2,2.6,730.7,2.6,731.7,3.6z"/>
<path id="SVGID_110_" class="st0" d="M856.5,28.9h10.4c1.5,0,2.2,1.8,1.2,2.8l-17.4,17.5c-1,1-2.8,0.3-2.8-1.2V37.5
	c0-0.6,0.2-1.1,0.6-1.5l6.5-6.5C855.4,29.1,855.9,28.9,856.5,28.9z"/>
<path id="SVGID_109_" class="st0" d="M848.2,3.1l19.9,19.9c1,1,0.3,2.8-1.2,2.8l-10.4,0c-0.6,0-1.1-0.2-1.5-0.6l-7.8-7.7
	c-0.5-0.5-1.2-0.5-1.7,0l-9,9c-0.5,0.5-0.5,1.2,0,1.7l7.8,7.8c0.4,0.4,0.6,1,0.6,1.5l0,10.6c0,1.5-1.8,2.2-2.8,1.2L822,29.2
	c-1-1-1-2.5,0-3.5l22.7-22.6C845.7,2.1,847.2,2.2,848.2,3.1z"/>
<path id="SVGID_108_" class="st0" d="M972.1,28.5h10.4c1.5,0,2.2,1.8,1.2,2.8l-17.4,17.5c-1,1-2.8,0.3-2.8-1.2V37.2
	c0-0.6,0.2-1.1,0.6-1.5l6.5-6.5C971,28.7,971.6,28.5,972.1,28.5z"/>
<path id="SVGID_107_" class="st0" d="M963.9,2.7l19.9,19.9c1,1,0.3,2.8-1.2,2.8l-10.4,0c-0.6,0-1.1-0.2-1.5-0.6l-7.8-7.7
	c-0.5-0.5-1.2-0.5-1.7,0l-9,9c-0.5,0.5-0.5,1.2,0,1.7l7.8,7.8c0.4,0.4,0.6,1,0.6,1.5l0,10.6c0,1.5-1.8,2.2-2.8,1.2l-20.1-20.1
	c-1-1-1-2.5,0-3.5l22.7-22.6C961.3,1.8,962.9,1.8,963.9,2.7z"/>
<path id="SVGID_130_" class="st0" d="M1092.8,28.8h10.4c1.5,0,2.2,1.8,1.2,2.8L1087,49.1c-1,1-2.8,0.3-2.8-1.2V37.4
	c0-0.6,0.2-1.1,0.6-1.5l6.5-6.5C1091.7,29,1092.2,28.8,1092.8,28.8z"/>
<path id="SVGID_129_" class="st0" d="M1084.5,3l19.9,19.9c1,1,0.3,2.8-1.2,2.8l-10.4,0c-0.6,0-1.1-0.2-1.5-0.6l-7.8-7.7
	c-0.5-0.5-1.2-0.5-1.7,0l-9,9c-0.5,0.5-0.5,1.2,0,1.7l7.8,7.8c0.4,0.4,0.6,1,0.6,1.5l0,10.6c0,1.5-1.8,2.2-2.8,1.2L1058.4,29
	c-1-1-1-2.5,0-3.5L1081,3C1082,2,1083.6,2,1084.5,3z"/>
<path id="SVGID_128_" class="st0" d="M1208.5,28.4h10.4c1.5,0,2.2,1.8,1.2,2.8l-17.4,17.5c-1,1-2.8,0.3-2.8-1.2V37
	c0-0.6,0.2-1.1,0.6-1.5l6.5-6.5C1207.4,28.6,1207.9,28.4,1208.5,28.4z"/>
<path id="SVGID_127_" class="st0" d="M1200.2,2.6l19.9,19.9c1,1,0.3,2.8-1.2,2.8l-10.4,0c-0.6,0-1.1-0.2-1.5-0.6l-7.8-7.7
	c-0.5-0.5-1.2-0.5-1.7,0l-9,9c-0.5,0.5-0.5,1.2,0,1.7l7.8,7.8c0.4,0.4,0.6,1,0.6,1.5l0,10.6c0,1.5-1.8,2.2-2.8,1.2L1174,28.6
	c-1-1-1-2.5,0-3.5l22.7-22.6C1197.7,1.6,1199.2,1.6,1200.2,2.6z"/>
<path id="SVGID_126_" class="st0" d="M1325,27.9h10.4c1.5,0,2.2,1.8,1.2,2.8l-17.4,17.5c-1,1-2.8,0.3-2.8-1.2V36.6
	c0-0.6,0.2-1.1,0.6-1.5l6.5-6.5C1323.9,28.1,1324.4,27.9,1325,27.9z"/>
<path id="SVGID_125_" class="st0" d="M1316.7,2.1l19.9,19.9c1,1,0.3,2.8-1.2,2.8l-10.4,0c-0.6,0-1.1-0.2-1.5-0.6l-7.8-7.7
	c-0.5-0.5-1.2-0.5-1.7,0l-9,9c-0.5,0.5-0.5,1.2,0,1.7l7.8,7.8c0.4,0.4,0.6,1,0.6,1.5l0,10.6c0,1.5-1.8,2.2-2.8,1.2l-20.1-20.1
	c-1-1-1-2.5,0-3.5l22.7-22.6C1314.2,1.2,1315.7,1.2,1316.7,2.1z"/>
<path id="SVGID_124_" class="st0" d="M1440.6,27.5h10.4c1.5,0,2.2,1.8,1.2,2.8l-17.4,17.5c-1,1-2.8,0.3-2.8-1.2V36.2
	c0-0.6,0.2-1.1,0.6-1.5l6.5-6.5C1439.5,27.8,1440.1,27.5,1440.6,27.5z"/>
<path id="SVGID_123_" class="st0" d="M1432.3,1.8l19.9,19.9c1,1,0.3,2.8-1.2,2.8l-10.4,0c-0.6,0-1.1-0.2-1.5-0.6l-7.8-7.7
	c-0.5-0.5-1.2-0.5-1.7,0l-9,9c-0.5,0.5-0.5,1.2,0,1.7l7.8,7.8c0.4,0.4,0.6,1,0.6,1.5l0,10.6c0,1.5-1.8,2.2-2.8,1.2l-20.1-20.1
	c-1-1-1-2.5,0-3.5l22.7-22.6C1429.8,0.8,1431.4,0.8,1432.3,1.8z"/>
<path id="SVGID_122_" class="st0" d="M1556.3,27.8h10.4c1.5,0,2.2,1.8,1.2,2.8l-17.4,17.5c-1,1-2.8,0.3-2.8-1.2V36.5
	c0-0.6,0.2-1.1,0.6-1.5l6.5-6.5C1555.2,28.1,1555.7,27.8,1556.3,27.8z"/>
<path id="SVGID_121_" class="st0" d="M1548,2.1l19.9,19.9c1,1,0.3,2.8-1.2,2.8l-10.4,0c-0.6,0-1.1-0.2-1.5-0.6l-7.8-7.7
	c-0.5-0.5-1.2-0.5-1.7,0l-9,9c-0.5,0.5-0.5,1.2,0,1.7l7.8,7.8c0.4,0.4,0.6,1,0.6,1.5l0,10.6c0,1.5-1.8,2.2-2.8,1.2l-20.1-20.1
	c-1-1-1-2.5,0-3.5l22.7-22.6C1545.5,1.1,1547,1.1,1548,2.1z"/>
<path id="SVGID_120_" class="st0" d="M1672,27.5h10.4c1.5,0,2.2,1.8,1.2,2.8l-17.4,17.5c-1,1-2.8,0.3-2.8-1.2V36.1
	c0-0.6,0.2-1.1,0.6-1.5l6.5-6.5C1670.8,27.7,1671.4,27.5,1672,27.5z"/>
<path id="SVGID_119_" class="st0" d="M1663.7,1.7l19.9,19.9c1,1,0.3,2.8-1.2,2.8l-10.4,0c-0.6,0-1.1-0.2-1.5-0.6l-7.8-7.7
	c-0.5-0.5-1.2-0.5-1.7,0l-9,9c-0.5,0.5-0.5,1.2,0,1.7l7.8,7.8c0.4,0.4,0.6,1,0.6,1.5l0,10.6c0,1.5-1.8,2.2-2.8,1.2l-20.1-20.1
	c-1-1-1-2.5,0-3.5l22.7-22.6C1661.1,0.7,1662.7,0.7,1663.7,1.7z"/>
<path id="SVGID_118_" class="st0" d="M1788.5,27h10.4c1.5,0,2.2,1.8,1.2,2.8l-17.4,17.5c-1,1-2.8,0.3-2.8-1.2V35.6
	c0-0.6,0.2-1.1,0.6-1.5l6.5-6.5C1787.3,27.2,1787.9,27,1788.5,27z"/>
<path id="SVGID_117_" class="st0" d="M1780.2,1.2l19.9,19.9c1,1,0.3,2.8-1.2,2.8l-10.4,0c-0.6,0-1.1-0.2-1.5-0.6l-7.8-7.7
	c-0.5-0.5-1.2-0.5-1.7,0l-9,9c-0.5,0.5-0.5,1.2,0,1.7l7.8,7.8c0.4,0.4,0.6,1,0.6,1.5l0,10.6c0,1.5-1.8,2.2-2.8,1.2L1754,27.3
	c-1-1-1-2.5,0-3.5l22.7-22.6C1777.6,0.2,1779.2,0.3,1780.2,1.2z"/>
<path id="SVGID_116_" class="st0" d="M1904.1,26.6h10.4c1.5,0,2.2,1.8,1.2,2.8L1898.3,47c-1,1-2.8,0.3-2.8-1.2V35.2
	c0-0.6,0.2-1.1,0.6-1.5l6.5-6.5C1903,26.8,1903.6,26.6,1904.1,26.6z"/>
<path id="SVGID_115_" class="st0" d="M1895.8,0.8l19.9,19.9c1,1,0.3,2.8-1.2,2.8l-10.4,0c-0.6,0-1.1-0.2-1.5-0.6l-7.8-7.7
	c-0.5-0.5-1.2-0.5-1.7,0l-9,9c-0.5,0.5-0.5,1.2,0,1.7l7.8,7.8c0.4,0.4,0.6,1,0.6,1.5l0,10.6c0,1.5-1.8,2.2-2.8,1.2l-20.1-20.1
	c-1-1-1-2.5,0-3.5l22.7-22.6C1893.3-0.1,1894.9-0.1,1895.8,0.8z"/>
<path id="SVGID_132_" class="st0" d="M41.4,30.2h10.4c1.5,0,2.2,1.8,1.2,2.8L35.6,50.5c-1,1-2.8,0.3-2.8-1.2V38.8
	c0-0.6,0.2-1.1,0.6-1.5l6.5-6.5C40.3,30.4,40.9,30.2,41.4,30.2z"/>
<path id="SVGID_131_" class="st0" d="M33.1,4.4l19.9,19.9c1,1,0.3,2.8-1.2,2.8l-10.4,0c-0.6,0-1.1-0.2-1.5-0.6l-7.8-7.7
	c-0.5-0.5-1.2-0.5-1.7,0l-9,9c-0.5,0.5-0.5,1.2,0,1.7l7.8,7.8c0.4,0.4,0.6,1,0.6,1.5l0,10.6c0,1.5-1.8,2.2-2.8,1.2L7,30.4
	c-1-1-1-2.5,0-3.5L29.7,4.4C30.6,3.4,32.2,3.4,33.1,4.4z"/><!--</g>-->
</svg>
