<svg id="Слой_1" data-name="Слой 1" xmlns="http://www.w3.org/2000/svg" viewBox="0 0 834.7145 834.4975"><defs><style>.cls-1{fill:#d9e021;}</style></defs><path class="cls-1" d="M510,896.2893V552.7163A43.7164,43.7164,0,0,1,553.7163,509h342.573c29.48,0,44.24-35.6454,23.39-56.4862l-344.8-344.6484a43.7164,43.7164,0,0,0-61.7843-.0263L107.9716,512.0947a43.7163,43.7163,0,0,0-.04,61.8506L453.5138,919.6794C474.3546,940.5294,510,925.7692,510,896.2893Z" transform="translate(-95.1342 -95.068)"/><path class="cls-1" d="M580,896.5843V597.8926A18.8926,18.8926,0,0,1,598.8926,579h297.975c29.3043,0,43.999,35.413,23.3039,56.16L636.2191,919.83C615.4957,940.6052,580,925.9286,580,896.5843Z" transform="translate(-95.1342 -95.068)"/></svg>