<svg id="Слой_1" data-name="Слой 1" xmlns="http://www.w3.org/2000/svg" viewBox="0 0 818 820"><defs><style>.cls-1{fill:#d9e021;}</style></defs><circle class="cls-1" cx="364.5" cy="63.5" r="3.5"/><circle class="cls-1" cx="333.5" cy="93.5" r="3.5"/><circle class="cls-1" cx="364.5" cy="93.5" r="3.5"/><circle class="cls-1" cx="303.5" cy="123.5" r="3.5"/><circle class="cls-1" cx="273.5" cy="153.5" r="3.5"/><circle class="cls-1" cx="303.5" cy="153.5" r="3.5"/><circle class="cls-1" cx="333.5" cy="123.5" r="3.5"/><circle class="cls-1" cx="364.5" cy="123.5" r="3.5"/><circle class="cls-1" cx="333.5" cy="153.5" r="3.5"/><circle class="cls-1" cx="364.5" cy="153.5" r="3.5"/><circle class="cls-1" cx="123.5" cy="303.5" r="3.5"/><circle class="cls-1" cx="93.5" cy="333.5" r="3.5"/><circle class="cls-1" cx="123.5" cy="333.5" r="3.5"/><circle class="cls-1" cx="63.5" cy="363.5" r="3.5"/><circle class="cls-1" cx="33.5" cy="394.5" r="3.5"/><circle class="cls-1" cx="63.5" cy="394.5" r="3.5"/><circle class="cls-1" cx="93.5" cy="363.5" r="3.5"/><circle class="cls-1" cx="123.5" cy="363.5" r="3.5"/><circle class="cls-1" cx="93.5" cy="394.5" r="3.5"/><circle class="cls-1" cx="123.5" cy="394.5" r="3.5"/><circle class="cls-1" cx="243.5" cy="183.5" r="3.5"/><circle class="cls-1" cx="213.5" cy="213.5" r="3.5"/><circle class="cls-1" cx="243.5" cy="213.5" r="3.5"/><circle class="cls-1" cx="183.5" cy="243.5" r="3.5"/><circle class="cls-1" cx="153.5" cy="273.5" r="3.5"/><circle class="cls-1" cx="183.5" cy="273.5" r="3.5"/><circle class="cls-1" cx="213.5" cy="243.5" r="3.5"/><circle class="cls-1" cx="243.5" cy="243.5" r="3.5"/><circle class="cls-1" cx="213.5" cy="273.5" r="3.5"/><circle class="cls-1" cx="243.5" cy="273.5" r="3.5"/><circle class="cls-1" cx="273.5" cy="183.5" r="3.5"/><circle class="cls-1" cx="303.5" cy="183.5" r="3.5"/><circle class="cls-1" cx="273.5" cy="213.5" r="3.5"/><circle class="cls-1" cx="303.5" cy="213.5" r="3.5"/><circle class="cls-1" cx="333.5" cy="183.5" r="3.5"/><circle class="cls-1" cx="364.5" cy="183.5" r="3.5"/><circle class="cls-1" cx="333.5" cy="213.5" r="3.5"/><circle class="cls-1" cx="364.5" cy="213.5" r="3.5"/><circle class="cls-1" cx="273.5" cy="243.5" r="3.5"/><circle class="cls-1" cx="303.5" cy="243.5" r="3.5"/><circle class="cls-1" cx="273.5" cy="273.5" r="3.5"/><circle class="cls-1" cx="303.5" cy="273.5" r="3.5"/><circle class="cls-1" cx="333.5" cy="243.5" r="3.5"/><circle class="cls-1" cx="364.5" cy="243.5" r="3.5"/><circle class="cls-1" cx="333.5" cy="273.5" r="3.5"/><circle class="cls-1" cx="364.5" cy="273.5" r="3.5"/><circle class="cls-1" cx="153.5" cy="303.5" r="3.5"/><circle class="cls-1" cx="183.5" cy="303.5" r="3.5"/><circle class="cls-1" cx="153.5" cy="333.5" r="3.5"/><circle class="cls-1" cx="183.5" cy="333.5" r="3.5"/><circle class="cls-1" cx="213.5" cy="303.5" r="3.5"/><circle class="cls-1" cx="243.5" cy="303.5" r="3.5"/><circle class="cls-1" cx="213.5" cy="333.5" r="3.5"/><circle class="cls-1" cx="243.5" cy="333.5" r="3.5"/><circle class="cls-1" cx="153.5" cy="363.5" r="3.5"/><circle class="cls-1" cx="183.5" cy="363.5" r="3.5"/><circle class="cls-1" cx="153.5" cy="394.5" r="3.5"/><circle class="cls-1" cx="183.5" cy="394.5" r="3.5"/><circle class="cls-1" cx="213.5" cy="363.5" r="3.5"/><circle class="cls-1" cx="243.5" cy="363.5" r="3.5"/><circle class="cls-1" cx="213.5" cy="394.5" r="3.5"/><circle class="cls-1" cx="243.5" cy="394.5" r="3.5"/><circle class="cls-1" cx="273.5" cy="303.5" r="3.5"/><circle class="cls-1" cx="303.5" cy="303.5" r="3.5"/><circle class="cls-1" cx="273.5" cy="333.5" r="3.5"/><circle class="cls-1" cx="303.5" cy="333.5" r="3.5"/><circle class="cls-1" cx="333.5" cy="303.5" r="3.5"/><circle class="cls-1" cx="364.5" cy="303.5" r="3.5"/><circle class="cls-1" cx="333.5" cy="333.5" r="3.5"/><circle class="cls-1" cx="364.5" cy="333.5" r="3.5"/><circle class="cls-1" cx="273.5" cy="363.5" r="3.5"/><circle class="cls-1" cx="303.5" cy="363.5" r="3.5"/><circle class="cls-1" cx="273.5" cy="394.5" r="3.5"/><circle class="cls-1" cx="303.5" cy="394.5" r="3.5"/><circle class="cls-1" cx="333.5" cy="363.5" r="3.5"/><circle class="cls-1" cx="364.5" cy="363.5" r="3.5"/><circle class="cls-1" cx="333.5" cy="394.5" r="3.5"/><circle class="cls-1" cx="364.5" cy="394.5" r="3.5"/><circle class="cls-1" cx="422.5" cy="3.5" r="3.5"/><circle class="cls-1" cx="393.5" cy="33.5" r="3.5"/><circle class="cls-1" cx="422.5" cy="33.5" r="3.5"/><circle class="cls-1" cx="452.5" cy="3.5" r="3.5"/><circle class="cls-1" cx="452.5" cy="33.5" r="3.5"/><circle class="cls-1" cx="483.5" cy="33.5" r="3.5"/><circle class="cls-1" cx="393.5" cy="63.5" r="3.5"/><circle class="cls-1" cx="422.5" cy="63.5" r="3.5"/><circle class="cls-1" cx="393.5" cy="94.5" r="3.5"/><circle class="cls-1" cx="422.5" cy="94.5" r="3.5"/><circle class="cls-1" cx="452.5" cy="63.5" r="3.5"/><circle class="cls-1" cx="483.5" cy="63.5" r="3.5"/><circle class="cls-1" cx="452.5" cy="94.5" r="3.5"/><circle class="cls-1" cx="483.5" cy="94.5" r="3.5"/><circle class="cls-1" cx="393.5" cy="123.5" r="3.5"/><circle class="cls-1" cx="422.5" cy="123.5" r="3.5"/><circle class="cls-1" cx="393.5" cy="153.5" r="3.5"/><circle class="cls-1" cx="422.5" cy="153.5" r="3.5"/><circle class="cls-1" cx="452.5" cy="123.5" r="3.5"/><circle class="cls-1" cx="483.5" cy="123.5" r="3.5"/><circle class="cls-1" cx="452.5" cy="153.5" r="3.5"/><circle class="cls-1" cx="483.5" cy="153.5" r="3.5"/><circle class="cls-1" cx="513.5" cy="63.5" r="3.5"/><circle class="cls-1" cx="513.5" cy="94.5" r="3.5"/><circle class="cls-1" cx="543.5" cy="94.5" r="3.5"/><circle class="cls-1" cx="513.5" cy="123.5" r="3.5"/><circle class="cls-1" cx="543.5" cy="123.5" r="3.5"/><circle class="cls-1" cx="513.5" cy="153.5" r="3.5"/><circle class="cls-1" cx="543.5" cy="153.5" r="3.5"/><circle class="cls-1" cx="573.5" cy="123.5" r="3.5"/><circle class="cls-1" cx="573.5" cy="153.5" r="3.5"/><circle class="cls-1" cx="603.5" cy="153.5" r="3.5"/><circle class="cls-1" cx="633.5" cy="183.5" r="3.5"/><circle class="cls-1" cx="633.5" cy="214.5" r="3.5"/><circle class="cls-1" cx="663.5" cy="214.5" r="3.5"/><circle class="cls-1" cx="633.5" cy="244.5" r="3.5"/><circle class="cls-1" cx="663.5" cy="244.5" r="3.5"/><circle class="cls-1" cx="633.5" cy="273.5" r="3.5"/><circle class="cls-1" cx="663.5" cy="273.5" r="3.5"/><circle class="cls-1" cx="694.5" cy="244.5" r="3.5"/><circle class="cls-1" cx="694.5" cy="273.5" r="3.5"/><circle class="cls-1" cx="723.5" cy="273.5" r="3.5"/><circle class="cls-1" cx="633.5" cy="304.5" r="3.5"/><circle class="cls-1" cx="663.5" cy="304.5" r="3.5"/><circle class="cls-1" cx="633.5" cy="334.5" r="3.5"/><circle class="cls-1" cx="663.5" cy="334.5" r="3.5"/><circle class="cls-1" cx="694.5" cy="304.5" r="3.5"/><circle class="cls-1" cx="723.5" cy="304.5" r="3.5"/><circle class="cls-1" cx="694.5" cy="334.5" r="3.5"/><circle class="cls-1" cx="723.5" cy="334.5" r="3.5"/><circle class="cls-1" cx="633.5" cy="364.5" r="3.5"/><circle class="cls-1" cx="663.5" cy="364.5" r="3.5"/><circle class="cls-1" cx="633.5" cy="393.5" r="3.5"/><circle class="cls-1" cx="663.5" cy="393.5" r="3.5"/><circle class="cls-1" cx="694.5" cy="364.5" r="3.5"/><circle class="cls-1" cx="723.5" cy="364.5" r="3.5"/><circle class="cls-1" cx="694.5" cy="393.5" r="3.5"/><circle class="cls-1" cx="723.5" cy="393.5" r="3.5"/><circle class="cls-1" cx="753.5" cy="304.5" r="3.5"/><circle class="cls-1" cx="753.5" cy="334.5" r="3.5"/><circle class="cls-1" cx="784.5" cy="334.5" r="3.5"/><circle class="cls-1" cx="753.5" cy="364.5" r="3.5"/><circle class="cls-1" cx="784.5" cy="364.5" r="3.5"/><circle class="cls-1" cx="753.5" cy="393.5" r="3.5"/><circle class="cls-1" cx="784.5" cy="393.5" r="3.5"/><circle class="cls-1" cx="814.5" cy="364.5" r="3.5"/><circle class="cls-1" cx="393.5" cy="183.5" r="3.5"/><circle class="cls-1" cx="422.5" cy="183.5" r="3.5"/><circle class="cls-1" cx="393.5" cy="214.5" r="3.5"/><circle class="cls-1" cx="422.5" cy="214.5" r="3.5"/><circle class="cls-1" cx="452.5" cy="183.5" r="3.5"/><circle class="cls-1" cx="483.5" cy="183.5" r="3.5"/><circle class="cls-1" cx="452.5" cy="214.5" r="3.5"/><circle class="cls-1" cx="483.5" cy="214.5" r="3.5"/><circle class="cls-1" cx="393.5" cy="244.5" r="3.5"/><circle class="cls-1" cx="422.5" cy="244.5" r="3.5"/><circle class="cls-1" cx="393.5" cy="273.5" r="3.5"/><circle class="cls-1" cx="422.5" cy="273.5" r="3.5"/><circle class="cls-1" cx="452.5" cy="244.5" r="3.5"/><circle class="cls-1" cx="483.5" cy="244.5" r="3.5"/><circle class="cls-1" cx="452.5" cy="273.5" r="3.5"/><circle class="cls-1" cx="483.5" cy="273.5" r="3.5"/><circle class="cls-1" cx="513.5" cy="183.5" r="3.5"/><circle class="cls-1" cx="543.5" cy="183.5" r="3.5"/><circle class="cls-1" cx="513.5" cy="214.5" r="3.5"/><circle class="cls-1" cx="543.5" cy="214.5" r="3.5"/><circle class="cls-1" cx="573.5" cy="183.5" r="3.5"/><circle class="cls-1" cx="603.5" cy="183.5" r="3.5"/><circle class="cls-1" cx="573.5" cy="214.5" r="3.5"/><circle class="cls-1" cx="603.5" cy="214.5" r="3.5"/><circle class="cls-1" cx="513.5" cy="244.5" r="3.5"/><circle class="cls-1" cx="543.5" cy="244.5" r="3.5"/><circle class="cls-1" cx="513.5" cy="273.5" r="3.5"/><circle class="cls-1" cx="543.5" cy="273.5" r="3.5"/><circle class="cls-1" cx="573.5" cy="244.5" r="3.5"/><circle class="cls-1" cx="603.5" cy="244.5" r="3.5"/><circle class="cls-1" cx="573.5" cy="273.5" r="3.5"/><circle class="cls-1" cx="603.5" cy="273.5" r="3.5"/><circle class="cls-1" cx="393.5" cy="304.5" r="3.5"/><circle class="cls-1" cx="422.5" cy="304.5" r="3.5"/><circle class="cls-1" cx="393.5" cy="334.5" r="3.5"/><circle class="cls-1" cx="422.5" cy="334.5" r="3.5"/><circle class="cls-1" cx="452.5" cy="304.5" r="3.5"/><circle class="cls-1" cx="483.5" cy="304.5" r="3.5"/><circle class="cls-1" cx="452.5" cy="334.5" r="3.5"/><circle class="cls-1" cx="483.5" cy="334.5" r="3.5"/><circle class="cls-1" cx="393.5" cy="364.5" r="3.5"/><circle class="cls-1" cx="422.5" cy="364.5" r="3.5"/><circle class="cls-1" cx="393.5" cy="393.5" r="3.5"/><circle class="cls-1" cx="422.5" cy="393.5" r="3.5"/><circle class="cls-1" cx="452.5" cy="364.5" r="3.5"/><circle class="cls-1" cx="483.5" cy="364.5" r="3.5"/><circle class="cls-1" cx="452.5" cy="393.5" r="3.5"/><circle class="cls-1" cx="483.5" cy="393.5" r="3.5"/><circle class="cls-1" cx="513.5" cy="304.5" r="3.5"/><circle class="cls-1" cx="543.5" cy="304.5" r="3.5"/><circle class="cls-1" cx="513.5" cy="334.5" r="3.5"/><circle class="cls-1" cx="543.5" cy="334.5" r="3.5"/><circle class="cls-1" cx="573.5" cy="304.5" r="3.5"/><circle class="cls-1" cx="603.5" cy="304.5" r="3.5"/><circle class="cls-1" cx="573.5" cy="334.5" r="3.5"/><circle class="cls-1" cx="603.5" cy="334.5" r="3.5"/><circle class="cls-1" cx="513.5" cy="364.5" r="3.5"/><circle class="cls-1" cx="543.5" cy="364.5" r="3.5"/><circle class="cls-1" cx="513.5" cy="393.5" r="3.5"/><circle class="cls-1" cx="543.5" cy="393.5" r="3.5"/><circle class="cls-1" cx="573.5" cy="364.5" r="3.5"/><circle class="cls-1" cx="603.5" cy="364.5" r="3.5"/><circle class="cls-1" cx="573.5" cy="393.5" r="3.5"/><circle class="cls-1" cx="603.5" cy="393.5" r="3.5"/><circle class="cls-1" cx="3.5" cy="424.5" r="3.5"/><circle class="cls-1" cx="3.5" cy="454.5" r="3.5"/><circle class="cls-1" cx="33.5" cy="424.5" r="3.5"/><circle class="cls-1" cx="63.5" cy="424.5" r="3.5"/><circle class="cls-1" cx="33.5" cy="454.5" r="3.5"/><circle class="cls-1" cx="63.5" cy="454.5" r="3.5"/><circle class="cls-1" cx="93.5" cy="424.5" r="3.5"/><circle class="cls-1" cx="123.5" cy="424.5" r="3.5"/><circle class="cls-1" cx="93.5" cy="454.5" r="3.5"/><circle class="cls-1" cx="123.5" cy="454.5" r="3.5"/><circle class="cls-1" cx="33.5" cy="484.5" r="3.5"/><circle class="cls-1" cx="63.5" cy="484.5" r="3.5"/><circle class="cls-1" cx="63.5" cy="514.5" r="3.5"/><circle class="cls-1" cx="93.5" cy="484.5" r="3.5"/><circle class="cls-1" cx="123.5" cy="484.5" r="3.5"/><circle class="cls-1" cx="93.5" cy="514.5" r="3.5"/><circle class="cls-1" cx="123.5" cy="514.5" r="3.5"/><circle class="cls-1" cx="93.5" cy="545.5" r="3.5"/><circle class="cls-1" cx="123.5" cy="545.5" r="3.5"/><circle class="cls-1" cx="123.5" cy="574.5" r="3.5"/><circle class="cls-1" cx="153.5" cy="424.5" r="3.5"/><circle class="cls-1" cx="183.5" cy="424.5" r="3.5"/><circle class="cls-1" cx="153.5" cy="454.5" r="3.5"/><circle class="cls-1" cx="183.5" cy="454.5" r="3.5"/><circle class="cls-1" cx="213.5" cy="424.5" r="3.5"/><circle class="cls-1" cx="243.5" cy="424.5" r="3.5"/><circle class="cls-1" cx="213.5" cy="454.5" r="3.5"/><circle class="cls-1" cx="243.5" cy="454.5" r="3.5"/><circle class="cls-1" cx="153.5" cy="484.5" r="3.5"/><circle class="cls-1" cx="183.5" cy="484.5" r="3.5"/><circle class="cls-1" cx="153.5" cy="514.5" r="3.5"/><circle class="cls-1" cx="183.5" cy="514.5" r="3.5"/><circle class="cls-1" cx="213.5" cy="484.5" r="3.5"/><circle class="cls-1" cx="243.5" cy="484.5" r="3.5"/><circle class="cls-1" cx="213.5" cy="514.5" r="3.5"/><circle class="cls-1" cx="243.5" cy="514.5" r="3.5"/><circle class="cls-1" cx="274.5" cy="424.5" r="3.5"/><circle class="cls-1" cx="304.5" cy="424.5" r="3.5"/><circle class="cls-1" cx="274.5" cy="454.5" r="3.5"/><circle class="cls-1" cx="304.5" cy="454.5" r="3.5"/><circle class="cls-1" cx="333.5" cy="424.5" r="3.5"/><circle class="cls-1" cx="363.5" cy="424.5" r="3.5"/><circle class="cls-1" cx="333.5" cy="454.5" r="3.5"/><circle class="cls-1" cx="363.5" cy="454.5" r="3.5"/><circle class="cls-1" cx="274.5" cy="484.5" r="3.5"/><circle class="cls-1" cx="304.5" cy="484.5" r="3.5"/><circle class="cls-1" cx="274.5" cy="514.5" r="3.5"/><circle class="cls-1" cx="304.5" cy="514.5" r="3.5"/><circle class="cls-1" cx="333.5" cy="484.5" r="3.5"/><circle class="cls-1" cx="363.5" cy="484.5" r="3.5"/><circle class="cls-1" cx="333.5" cy="514.5" r="3.5"/><circle class="cls-1" cx="363.5" cy="514.5" r="3.5"/><circle class="cls-1" cx="153.5" cy="545.5" r="3.5"/><circle class="cls-1" cx="183.5" cy="545.5" r="3.5"/><circle class="cls-1" cx="153.5" cy="574.5" r="3.5"/><circle class="cls-1" cx="183.5" cy="574.5" r="3.5"/><circle class="cls-1" cx="213.5" cy="545.5" r="3.5"/><circle class="cls-1" cx="243.5" cy="545.5" r="3.5"/><circle class="cls-1" cx="213.5" cy="574.5" r="3.5"/><circle class="cls-1" cx="243.5" cy="574.5" r="3.5"/><circle class="cls-1" cx="153.5" cy="604.5" r="3.5"/><circle class="cls-1" cx="183.5" cy="604.5" r="3.5"/><circle class="cls-1" cx="183.5" cy="635.5" r="3.5"/><circle class="cls-1" cx="213.5" cy="604.5" r="3.5"/><circle class="cls-1" cx="243.5" cy="604.5" r="3.5"/><circle class="cls-1" cx="213.5" cy="635.5" r="3.5"/><circle class="cls-1" cx="243.5" cy="635.5" r="3.5"/><circle class="cls-1" cx="274.5" cy="545.5" r="3.5"/><circle class="cls-1" cx="304.5" cy="545.5" r="3.5"/><circle class="cls-1" cx="274.5" cy="574.5" r="3.5"/><circle class="cls-1" cx="304.5" cy="574.5" r="3.5"/><circle class="cls-1" cx="333.5" cy="545.5" r="3.5"/><circle class="cls-1" cx="363.5" cy="545.5" r="3.5"/><circle class="cls-1" cx="333.5" cy="574.5" r="3.5"/><circle class="cls-1" cx="363.5" cy="574.5" r="3.5"/><circle class="cls-1" cx="274.5" cy="604.5" r="3.5"/><circle class="cls-1" cx="304.5" cy="604.5" r="3.5"/><circle class="cls-1" cx="274.5" cy="635.5" r="3.5"/><circle class="cls-1" cx="304.5" cy="635.5" r="3.5"/><circle class="cls-1" cx="333.5" cy="604.5" r="3.5"/><circle class="cls-1" cx="363.5" cy="604.5" r="3.5"/><circle class="cls-1" cx="333.5" cy="635.5" r="3.5"/><circle class="cls-1" cx="363.5" cy="635.5" r="3.5"/><circle class="cls-1" cx="213.5" cy="665.5" r="3.5"/><circle class="cls-1" cx="243.5" cy="665.5" r="3.5"/><circle class="cls-1" cx="243.5" cy="695.5" r="3.5"/><circle class="cls-1" cx="274.5" cy="665.5" r="3.5"/><circle class="cls-1" cx="304.5" cy="665.5" r="3.5"/><circle class="cls-1" cx="274.5" cy="695.5" r="3.5"/><circle class="cls-1" cx="304.5" cy="695.5" r="3.5"/><circle class="cls-1" cx="333.5" cy="665.5" r="3.5"/><circle class="cls-1" cx="363.5" cy="665.5" r="3.5"/><circle class="cls-1" cx="333.5" cy="695.5" r="3.5"/><circle class="cls-1" cx="363.5" cy="695.5" r="3.5"/><circle class="cls-1" cx="274.5" cy="724.5" r="3.5"/><circle class="cls-1" cx="304.5" cy="724.5" r="3.5"/><circle class="cls-1" cx="304.5" cy="755.5" r="3.5"/><circle class="cls-1" cx="333.5" cy="724.5" r="3.5"/><circle class="cls-1" cx="363.5" cy="724.5" r="3.5"/><circle class="cls-1" cx="333.5" cy="755.5" r="3.5"/><circle class="cls-1" cx="363.5" cy="755.5" r="3.5"/><circle class="cls-1" cx="333.5" cy="785.5" r="3.5"/><circle class="cls-1" cx="363.5" cy="785.5" r="3.5"/><circle class="cls-1" cx="363.5" cy="815.5" r="3.5"/><circle class="cls-1" cx="633.5" cy="485.5" r="3.5"/><circle class="cls-1" cx="663.5" cy="485.5" r="3.5"/><circle class="cls-1" cx="633.5" cy="515.5" r="3.5"/><circle class="cls-1" cx="663.5" cy="515.5" r="3.5"/><circle class="cls-1" cx="694.5" cy="485.5" r="3.5"/><circle class="cls-1" cx="723.5" cy="485.5" r="3.5"/><circle class="cls-1" cx="694.5" cy="515.5" r="3.5"/><circle class="cls-1" cx="723.5" cy="515.5" r="3.5"/><circle class="cls-1" cx="753.5" cy="485.5" r="3.5"/><circle class="cls-1" cx="784.5" cy="485.5" r="3.5"/><circle class="cls-1" cx="753.5" cy="515.5" r="3.5"/><circle class="cls-1" cx="784.5" cy="515.5" r="3.5"/><circle class="cls-1" cx="814.5" cy="515.5" r="3.5"/><circle class="cls-1" cx="633.5" cy="545.5" r="3.5"/><circle class="cls-1" cx="663.5" cy="545.5" r="3.5"/><circle class="cls-1" cx="633.5" cy="575.5" r="3.5"/><circle class="cls-1" cx="663.5" cy="575.5" r="3.5"/><circle class="cls-1" cx="694.5" cy="545.5" r="3.5"/><circle class="cls-1" cx="723.5" cy="545.5" r="3.5"/><circle class="cls-1" cx="694.5" cy="575.5" r="3.5"/><circle class="cls-1" cx="723.5" cy="575.5" r="3.5"/><circle class="cls-1" cx="633.5" cy="605.5" r="3.5"/><circle class="cls-1" cx="663.5" cy="605.5" r="3.5"/><circle class="cls-1" cx="633.5" cy="635.5" r="3.5"/><circle class="cls-1" cx="663.5" cy="635.5" r="3.5"/><circle class="cls-1" cx="694.5" cy="605.5" r="3.5"/><circle class="cls-1" cx="723.5" cy="605.5" r="3.5"/><circle class="cls-1" cx="694.5" cy="635.5" r="3.5"/><circle class="cls-1" cx="753.5" cy="545.5" r="3.5"/><circle class="cls-1" cx="784.5" cy="545.5" r="3.5"/><circle class="cls-1" cx="753.5" cy="575.5" r="3.5"/><circle class="cls-1" cx="393.5" cy="425.5" r="3.5"/><circle class="cls-1" cx="393.5" cy="455.5" r="3.5"/><circle class="cls-1" cx="393.5" cy="485.5" r="3.5"/><circle class="cls-1" cx="393.5" cy="515.5" r="3.5"/><circle class="cls-1" cx="483.5" cy="515.5" r="3.5"/><circle class="cls-1" cx="513.5" cy="485.5" r="3.5"/><circle class="cls-1" cx="543.5" cy="485.5" r="3.5"/><circle class="cls-1" cx="513.5" cy="515.5" r="3.5"/><circle class="cls-1" cx="543.5" cy="515.5" r="3.5"/><circle class="cls-1" cx="573.5" cy="485.5" r="3.5"/><circle class="cls-1" cx="603.5" cy="485.5" r="3.5"/><circle class="cls-1" cx="573.5" cy="515.5" r="3.5"/><circle class="cls-1" cx="603.5" cy="515.5" r="3.5"/><circle class="cls-1" cx="393.5" cy="545.5" r="3.5"/><circle class="cls-1" cx="393.5" cy="575.5" r="3.5"/><circle class="cls-1" cx="483.5" cy="545.5" r="3.5"/><circle class="cls-1" cx="483.5" cy="575.5" r="3.5"/><circle class="cls-1" cx="393.5" cy="605.5" r="3.5"/><circle class="cls-1" cx="393.5" cy="635.5" r="3.5"/><circle class="cls-1" cx="483.5" cy="605.5" r="3.5"/><circle class="cls-1" cx="483.5" cy="635.5" r="3.5"/><circle class="cls-1" cx="513.5" cy="545.5" r="3.5"/><circle class="cls-1" cx="543.5" cy="545.5" r="3.5"/><circle class="cls-1" cx="513.5" cy="575.5" r="3.5"/><circle class="cls-1" cx="543.5" cy="575.5" r="3.5"/><circle class="cls-1" cx="573.5" cy="545.5" r="3.5"/><circle class="cls-1" cx="603.5" cy="545.5" r="3.5"/><circle class="cls-1" cx="573.5" cy="575.5" r="3.5"/><circle class="cls-1" cx="603.5" cy="575.5" r="3.5"/><circle class="cls-1" cx="513.5" cy="605.5" r="3.5"/><circle class="cls-1" cx="543.5" cy="605.5" r="3.5"/><circle class="cls-1" cx="513.5" cy="635.5" r="3.5"/><circle class="cls-1" cx="543.5" cy="635.5" r="3.5"/><circle class="cls-1" cx="573.5" cy="605.5" r="3.5"/><circle class="cls-1" cx="603.5" cy="605.5" r="3.5"/><circle class="cls-1" cx="573.5" cy="635.5" r="3.5"/><circle class="cls-1" cx="603.5" cy="635.5" r="3.5"/><circle class="cls-1" cx="633.5" cy="666.5" r="3.5"/><circle class="cls-1" cx="663.5" cy="666.5" r="3.5"/><circle class="cls-1" cx="633.5" cy="695.5" r="3.5"/><circle class="cls-1" cx="393.5" cy="666.5" r="3.5"/><circle class="cls-1" cx="393.5" cy="695.5" r="3.5"/><circle class="cls-1" cx="483.5" cy="666.5" r="3.5"/><circle class="cls-1" cx="483.5" cy="695.5" r="3.5"/><circle class="cls-1" cx="393.5" cy="725.5" r="3.5"/><circle class="cls-1" cx="393.5" cy="756.5" r="3.5"/><circle class="cls-1" cx="483.5" cy="725.5" r="3.5"/><circle class="cls-1" cx="483.5" cy="756.5" r="3.5"/><circle class="cls-1" cx="513.5" cy="666.5" r="3.5"/><circle class="cls-1" cx="543.5" cy="666.5" r="3.5"/><circle class="cls-1" cx="513.5" cy="695.5" r="3.5"/><circle class="cls-1" cx="543.5" cy="695.5" r="3.5"/><circle class="cls-1" cx="573.5" cy="666.5" r="3.5"/><circle class="cls-1" cx="603.5" cy="666.5" r="3.5"/><circle class="cls-1" cx="573.5" cy="695.5" r="3.5"/><circle class="cls-1" cx="603.5" cy="695.5" r="3.5"/><circle class="cls-1" cx="513.5" cy="725.5" r="3.5"/><circle class="cls-1" cx="543.5" cy="725.5" r="3.5"/><circle class="cls-1" cx="513.5" cy="756.5" r="3.5"/><circle class="cls-1" cx="543.5" cy="756.5" r="3.5"/><circle class="cls-1" cx="573.5" cy="725.5" r="3.5"/><circle class="cls-1" cx="603.5" cy="725.5" r="3.5"/><circle class="cls-1" cx="573.5" cy="756.5" r="3.5"/><circle class="cls-1" cx="393.5" cy="786.5" r="3.5"/><circle class="cls-1" cx="483.5" cy="786.5" r="3.5"/><circle class="cls-1" cx="513.5" cy="786.5" r="3.5"/><circle class="cls-1" cx="543.5" cy="786.5" r="3.5"/><circle class="cls-1" cx="513.5" cy="816.5" r="3.5"/><circle class="cls-1" cx="422.5" cy="425.5" r="3.5"/></svg>